<svg version="1.1" xmlns="http://www.w3.org/2000/svg" viewBox="100 540 710 710" width="100%" height="100%" preserveAspectRatio="xMidYMid meet">
  <defs>
    <linearGradient id="Gradient1" gradientUnits="userSpaceOnUse" x1="817.416" y1="732.857" x2="776.584" y2="614.143" gradientTransform="matrix(0.78338849,0,0,0.73221001,-264.07561,271.64545)">
      <stop offset="0" stop-opacity="1" stop-color="rgb(233,172,87)" />
      <stop offset="1" stop-opacity="1" stop-color="rgb(251,211,152)" />
    </linearGradient>
  </defs>

  <path fill="#189e7c" d="m 711.75226,1224.6827 c -5.92241,6.9487 -14.97838,10.1557 -24.26154,10.3608 -19.66305,0.4393 -39.47494,0.2123 -59.13799,0.183 H 520.48796 l -85.06659,0.037 c -6.11043,0 -12.51071,0.1758 -18.61722,0 -16.75198,-0.4832 -42.58187,3.1339 -52.12902,-13.5092 -5.08341,-8.8671 -9.92475,-17.9538 -14.91964,-26.8063 L 309.11565,1121.7559 203.59635,933.07565 129.92493,801.30494 107.0163,760.31436 c -4.70346,-8.42993 -9.643515,-16.81081 -13.681882,-25.50507 -6.962757,-14.992 1.826079,-31.77572 16.766082,-39.0246 13.92787,-6.75756 27.93485,-13.3372 41.8494,-20.09843 l 97.86324,-47.56436 51.59475,-25.46407 c 19.76176,-9.69812 43.04328,-25.01156 61.49913,-0.0234 7.21031,9.76109 13.41709,23.06095 19.33011,33.75049 10.80528,19.53609 21.7641,38.9975 32.87647,58.38203 41.56894,72.86808 82.74305,145.93165 123.51764,219.18926 1.15942,3.42455 3.03172,6.55841 4.70033,9.78526 9.19698,17.84615 19.38103,35.21051 29.09505,52.80991 l 90.56755,161.91362 33.28617,59.6385 c 3.03955,5.4549 12.06418,22.6985 15.47192,26.5792 z" />
  <path fill="url(#Gradient1)" d="m 347.99365,718.265 c 8.31567,-3.59881 14.08846,-6.26405 23.62543,-3.55707 7.55108,2.14318 14.40887,12.31138 15.88555,19.22637 l 0.98864,1.82613 c 5.17742,6.72096 9.18366,16.34073 14.05712,23.37141 l 1.37955,2.82121 c 2.52016,5.1467 6.85622,12.44683 8.60004,17.28455 -2.28984,9.26977 -6.1449,19.04771 -17.39828,21.58262 l -2.46689,2.02529 c -4.97373,2.1073 -12.73946,5.49597 -17.2745,8.39113 l -2.61495,1.3685 c -24.31481,9.34739 -28.69082,3.4736 -39.82198,-16.55966 l -0.91265,-2.48146 c -4.8954,-6.81322 -8.42848,-15.96657 -13.80722,-23.12759 l -0.39405,-2.34234 c -12.02188,-15.74691 -10.26239,-29.81266 8.62119,-39.14907 l 2.77947,-0.81056 c 2.58909,-1.71117 13.72183,-7.62304 16.45742,-8.50022 0.91813,-1.0478 0.78417,-0.73734 2.29611,-1.36924 z" />
  <path fill="#f2be78" d="m 403.92994,761.95305 c 2.52016,5.1467 6.85622,12.44683 8.60004,17.28455 -2.28984,9.26977 -6.1449,19.04771 -17.39828,21.58262 -5.33487,-8.79531 -11.4641,-17.12273 -16.56788,-26.0286 6.54365,-4.48186 17.85421,-9.37668 25.36612,-12.83857 z" />
  <path fill="#f2be78" d="m 326.46065,728.94502 c 4.88365,8.08506 12.21773,19.56904 15.9874,27.93088 -8.1872,4.04253 -16.23651,7.54762 -24.60859,11.21819 -12.02188,-15.74691 -10.26239,-29.81266 8.62119,-39.14907 z" />
  <path fill="#f2be78" d="m 332.95338,796.04548 c 7.65214,-2.67916 17.03243,-8.24029 24.76056,-11.6685 l 15.06142,28.22816 c -24.31481,9.34739 -28.69082,3.4736 -39.82198,-16.55966 z" />
  <path fill="#f2be78" d="m 347.99365,718.265 c 8.31567,-3.59881 14.08846,-6.26405 23.62543,-3.55707 7.55108,2.14318 14.40887,12.31138 15.88555,19.22637 -8.18797,3.08187 -15.43588,6.75976 -23.24783,10.56506 -6.01721,-8.345 -10.26082,-17.61698 -16.26315,-26.23436 z" />
  <path fill="#0f1c1c" d="m 332.04073,793.56402 c 7.35602,-3.2415 19.93645,-10.06496 26.68221,-12.07927 6.18955,9.13285 10.94551,20.19582 16.66737,29.75189 l -2.61495,1.3685 -15.06142,-28.22816 c -7.72813,3.42821 -17.10842,8.98934 -24.76056,11.6685 z" />
  <path fill="#0f1c1c" d="m 402.55039,759.13184 1.37955,2.82121 c -7.51191,3.46189 -18.82247,8.35671 -25.36612,12.83857 5.10378,8.90587 11.23301,17.23329 16.56788,26.0286 l -2.46689,2.02529 c -4.3196,-8.87731 -14.0767,-21.22603 -16.95409,-28.91131 5.79943,-5.1921 19.1421,-10.84257 26.83967,-14.80236 z" />
  <path fill="#0f1c1c" d="m 326.46065,728.94502 2.77947,-0.81056 c 4.2961,7.20056 13.55888,21.86233 16.32895,28.8586 -5.58948,4.51993 -20.10567,10.93628 -27.33556,13.44337 l -0.39405,-2.34234 c 8.37208,-3.67057 16.42139,-7.17566 24.60859,-11.21819 -3.76967,-8.36184 -11.10375,-19.84582 -15.9874,-27.93088 z" />
  <path fill="#0f1c1c" d="m 345.69754,719.63424 c 0.91813,-1.0478 0.78417,-0.73734 2.29611,-1.36924 6.00233,8.61738 10.24594,17.88936 16.26315,26.23436 7.81195,-3.8053 15.05986,-7.48319 23.24783,-10.56506 l 0.98864,1.82613 c -8.36424,3.88437 -16.46918,7.86247 -24.93917,11.60187 -4.92203,-5.49451 -13.27687,-20.61171 -17.85656,-27.72806 z" />
  <path fill="#0b2841" d="m 198.02019,765.25458 c 3.23775,0.27458 7.93651,0.89476 9.82213,3.80164 8.74418,13.47559 16.16287,27.92722 23.91293,41.9322 7.52523,13.59714 -3.35447,17.82053 -15.01756,21.90626 -2.66743,-0.0212 -5.25418,-0.1772 -7.64822,-1.4117 -4.67526,-2.41044 -26.77152,-43.36148 -28.50202,-50.06047 -0.72777,-2.81828 0.12691,-5.31511 1.85741,-7.65892 3.49862,-4.73813 9.75476,-7.33015 15.57533,-8.50901 z" />
  <path fill="#0b2841" d="m 329.31062,1005.4224 c 2.39012,-0.2124 5.07871,-0.3442 7.37482,0.4246 6.54756,2.204 25.70768,38.7486 28.81538,46.122 1.35839,3.2217 2.73951,6.3995 1.03172,9.731 -2.9095,5.6673 -10.4504,7.6663 -16.22946,9.797 -10.30547,2.3357 -15.83776,-10.2656 -19.45467,-17.5071 -4.98548,-9.9801 -16.66189,-26.4768 -17.0481,-36.8375 3.18291,-7.0073 8.37521,-8.6694 15.51031,-11.73 z" />
  <path fill="#0b2841" d="m 275.93836,910.29147 c 17.90905,-1.19716 20.71044,23.54788 30.14479,34.59986 3.3153,3.88364 8.56244,15.99073 7.12414,20.51945 -1.45554,4.58363 -11.6012,8.61152 -15.92394,10.47646 -2.49431,0.60993 -4.58204,1.03315 -7.08497,-0.0103 -6.77396,-2.82267 -24.01007,-36.83968 -27.29874,-44.43856 -1.69211,-3.91 -2.89775,-7.26645 -0.95886,-11.26871 2.65255,-5.47547 8.27571,-7.94521 13.99758,-9.87825 z" />
  <path fill="#0b2841" d="m 238.00434,839.90486 c 3.83547,-0.1545 9.24242,0.0395 11.51503,3.51973 7.69601,11.78785 13.79939,25.0328 20.92509,37.13476 8.28903,14.07674 0.7215,18.73506 -12.65721,24.10143 -2.35722,0.22698 -5.00193,0.093 -7.13432,-0.97018 -6.70032,-3.34107 -25.84947,-38.99384 -28.29991,-46.91123 -0.92988,-3.00353 -0.73717,-5.53404 0.9432,-8.27031 3.0654,-4.99294 9.09279,-7.12367 14.70812,-8.6042 z" />
  <path fill="#0b2841" d="m 173.70146,717.60455 c 6.55618,1.47174 8.15821,4.17579 11.37089,9.43233 12.26238,20.06329 9.84406,24.41774 -12.42376,32.09935 -7.39675,-1.81954 -9.17191,-5.32316 -13.06849,-11.09078 -12.09865,-17.90693 -4.67291,-24.81972 14.12136,-30.4409 z" />
  <path fill="#0b2841" d="m 419.41361,1167.1896 c 11.5213,-0.5346 15.27451,8.684 19.93411,17.1923 7.86757,14.3659 -2.37915,17.5291 -14.61176,22.5667 -9.92789,1.9989 -16.25061,-10.7342 -19.85107,-17.9099 -6.4042,-12.7697 3.58635,-17.617 14.52872,-21.8491 z" />
  <path fill="#0b2841" d="m 398.18614,1122.6712 c 7.14372,0.9592 9.40379,4.9351 12.78176,10.3315 12.16681,19.4328 6.77475,23.0426 -12.94314,30.0133 -10.04304,-0.6078 -14.76766,-12.0815 -17.86831,-19.8649 -4.89304,-12.2865 7.17192,-18.0197 18.02969,-20.4799 z" />
  <path fill="#189e7c" d="m 728.17992,590.23808 c 30.56782,-2.70625 61.91903,-1.53032 92.61219,-1.6709 18.14328,-0.0835 39.33394,-1.68042 57.12469,-0.18012 4.59065,0.38733 9.22831,0.80909 12.8554,3.68594 8.76612,6.94428 81.23739,101.25147 88.28005,114.97894 -20.84597,-10.26778 -44.44163,-20.56412 -65.75763,-30.44749 L 805.39853,626.24451 c -14.98623,-6.78978 -29.88628,-13.74871 -44.70015,-20.87531 -7.37169,-3.57391 -25.73431,-12.98135 -32.51846,-15.13112 z" />
  <path fill="#0b2841" d="m 543.21406,906.37708 0.38387,0.6524 c 3.17272,5.50988 4.81,13.00698 9.64351,16.26604 9.23615,1.47467 21.35517,-10.88357 26.62737,-3.56586 4.1598,5.76762 2.46768,18.00285 7.9749,22.10469 9.34582,1.71557 23.51732,-11.71829 29.06371,-4.50895 3.56442,4.63123 2.56951,19.88902 9.00113,21.5321 6.65881,1.70239 22.45975,-12.02362 28.46834,-5.0215 4.50449,5.24702 1.08108,20.58536 9.70619,21.35271 6.38461,0.5682 21.55101,-10.14989 26.5177,-5.87525 5.2252,4.4965 2.50684,21.68511 10.56007,21.95749 8.67211,0.29435 19.69439,-10.4911 27.36376,-5.27118 5.49156,7.7585 1.26126,20.98953 9.54951,22.05123 6.56479,0.8347 21.8722,-11.03586 27.28542,-5.1233 4.07362,4.435 2.10731,20.324 8.44493,21.7884 7.23067,1.6768 21.88787,-11.0783 27.59877,-3.9027 5.53073,6.9707 1.91931,17.4413 11.31997,22.1421 l -63.3683,114.913 c -10.95177,19.8283 -25.36612,48.3698 -37.60265,66.8142 -3.40774,-3.8807 -12.43237,-21.1243 -15.47192,-26.5792 L 662.99417,1138.465 572.42662,976.55135 c -9.71402,-17.5994 -19.89807,-34.96376 -29.09505,-52.80991 -1.66861,-3.22685 -3.54091,-6.36071 -4.70033,-9.78526 1.66079,-2.27937 3.17273,-5.11888 4.58282,-7.5791 z" />
  <path fill="#0b2841" d="m 728.17992,590.23808 c 30.56782,-2.70625 61.91903,-1.53032 92.61219,-1.6709 18.14328,-0.0835 39.33394,-1.68042 57.12469,-0.18012 4.59065,0.38733 9.22831,0.80909 12.8554,3.68594 8.76612,6.94428 81.23739,101.25147 88.28005,114.97894 11.98585,15.39545 2.93771,33.58354 -7.12883,47.7584 -4.1598,1.35605 -15.33875,6.37315 -18.3548,5.47473 -5.44455,-1.61672 -6.43161,-18.43705 -9.27532,-21.99193 -4.80217,-6.00046 -17.60273,6.14544 -27.85729,4.33396 -6.22794,-3.87852 -4.35564,-15.91825 -8.02973,-21.53064 -4.43398,-6.77514 -22.03672,6.94721 -28.13932,4.50748 -6.40811,-2.56346 -4.68466,-15.83623 -9.29882,-22.42393 -6.52562,-3.18218 -20.61095,6.96259 -27.43426,5.3693 -5.09986,-1.1935 -6.38462,-17.54009 -8.32742,-20.80795 -4.58283,-7.69333 -18.24512,6.46542 -28.68769,3.70206 -6.49429,-4.35006 -4.19113,-16.14963 -7.84172,-21.59873 -4.59849,-6.86154 -19.84323,7.07388 -27.62228,4.10257 -6.77631,-2.58909 -4.3713,-14.48092 -8.01406,-20.22877 -4.67683,-7.70065 -21.15932,7.33602 -27.29326,3.9598 -5.87541,-3.23125 -6.86248,-18.97742 -10.40339,-25.44284 -8.39793,2.03481 -17.21888,6.90255 -25.27995,6.88424 -2.16999,-0.005 -3.75243,-2.60008 -5.17037,-4.29148 4.1598,-8.79531 9.09514,-17.49689 13.6153,-26.13917 5.42104,-10.35784 8.25691,-14.25686 19.67088,-18.45096 z" />
</svg>
