<?xml version="1.0" encoding="UTF-8" standalone="no"?>
<svg
   version="1.1"
   style="display:block"
   viewBox="0 0 1800 600"
   width="1800"
   height="600"
   preserveAspectRatio="xMidYMid"
   id="svg42"
   xmlns="http://www.w3.org/2000/svg"
   xmlns:svg="http://www.w3.org/2000/svg">
  <defs
     id="defs2">
    <linearGradient
       id="Gradient1"
       gradientUnits="userSpaceOnUse"
       x1="817.41602"
       y1="732.85699"
       x2="776.58398"
       y2="614.14301"
       gradientTransform="matrix(0.78338849,0,0,0.73221001,-264.07561,271.64545)">
      <stop
         class="stop0"
         offset="0"
         stop-opacity="1"
         stop-color="rgb(233,172,87)"
         id="stop1" />
      <stop
         class="stop1"
         offset="1"
         stop-opacity="1"
         stop-color="rgb(251,211,152)"
         id="stop2" />
    </linearGradient>
    <clipPath
       clipPathUnits="userSpaceOnUse"
       id="clipPath1">
      <path
         fill="#189e7c"
         d="m 1768.235,847.6552 c 8.7504,-1.99894 17.5714,3.05331 19.6239,11.25407 2.0603,8.20075 -3.4391,16.39418 -12.2287,18.23935 -8.6721,1.8232 -17.3051,-3.22905 -19.3341,-11.31997 -2.0289,-8.09824 3.2981,-16.20381 11.9389,-18.17345 z"
         id="path1"
         style="display:none;stroke-width:0.757367" />
      <path
         id="lpe_path-effect77"
         style="stroke-width:0.757367"
         class="powerclip"
         d="m 1753.7399,882.43812 h 36.3309 v 101.14295 h -36.3309 z m 14.4951,-34.78292 c -8.6408,1.96964 -13.9678,10.07521 -11.9389,18.17345 2.029,8.09092 10.662,13.14317 19.3341,11.31997 8.7896,-1.84517 14.289,-10.0386 12.2287,-18.23935 -2.0525,-8.20076 -10.8735,-13.25301 -19.6239,-11.25407 z" />
    </clipPath>
    <clipPath
       clipPathUnits="userSpaceOnUse"
       id="clipPath2">
      <path
         fill="#189e7c"
         d="m 1768.235,847.6552 c 8.7504,-1.99894 17.5714,3.05331 19.6239,11.25407 2.0603,8.20075 -3.4391,16.39418 -12.2287,18.23935 -8.6721,1.8232 -17.3051,-3.22905 -19.3341,-11.31997 -2.0289,-8.09824 3.2981,-16.20381 11.9389,-18.17345 z"
         id="path2"
         style="display:none;stroke-width:0.757367" />
      <path
         id="lpe_path-effect78"
         style="stroke-width:0.757367"
         class="powerclip"
         d="m 1359.7233,880.06157 h 102.9389 V 986.31209 H 1359.7233 Z M 1768.235,847.6552 c -8.6408,1.96964 -13.9678,10.07521 -11.9389,18.17345 2.029,8.09092 10.662,13.14317 19.3341,11.31997 8.7896,-1.84517 14.289,-10.0386 12.2287,-18.23935 -2.0525,-8.20076 -10.8735,-13.25301 -19.6239,-11.25407 z" />
    </clipPath>
    <clipPath
       clipPathUnits="userSpaceOnUse"
       id="clipPath3">
      <path
         fill="#189e7c"
         d="m 1768.235,847.6552 c 8.7504,-1.99894 17.5714,3.05331 19.6239,11.25407 2.0603,8.20075 -3.4391,16.39418 -12.2287,18.23935 -8.6721,1.8232 -17.3051,-3.22905 -19.3341,-11.31997 -2.0289,-8.09824 3.2981,-16.20381 11.9389,-18.17345 z"
         id="path13"
         style="display:none;stroke-width:0.757367" />
      <path
         id="lpe_path-effect79"
         style="stroke-width:0.757367"
         class="powerclip"
         d="m 1794.6254,880.53486 h 88.2975 v 105.15347 h -88.2975 z M 1768.235,847.6552 c -8.6408,1.96964 -13.9678,10.07521 -11.9389,18.17345 2.029,8.09092 10.662,13.14317 19.3341,11.31997 8.7896,-1.84517 14.289,-10.0386 12.2287,-18.23935 -2.0525,-8.20076 -10.8735,-13.25301 -19.6239,-11.25407 z" />
    </clipPath>
    <clipPath
       clipPathUnits="userSpaceOnUse"
       id="clipPath13">
      <path
         fill="#189e7c"
         d="m 1768.235,847.6552 c 8.7504,-1.99894 17.5714,3.05331 19.6239,11.25407 2.0603,8.20075 -3.4391,16.39418 -12.2287,18.23935 -8.6721,1.8232 -17.3051,-3.22905 -19.3341,-11.31997 -2.0289,-8.09824 3.2981,-16.20381 11.9389,-18.17345 z"
         id="path43"
         style="display:none;stroke-width:0.757367" />
      <path
         id="lpe_path-effect80"
         style="stroke-width:0.757367"
         class="powerclip"
         d="m 1253.7486,882.00617 h 100.7595 V 985.93675 H 1253.7486 Z M 1768.235,847.6552 c -8.6408,1.96964 -13.9678,10.07521 -11.9389,18.17345 2.029,8.09092 10.662,13.14317 19.3341,11.31997 8.7896,-1.84517 14.289,-10.0386 12.2287,-18.23935 -2.0525,-8.20076 -10.8735,-13.25301 -19.6239,-11.25407 z" />
    </clipPath>
    <clipPath
       clipPathUnits="userSpaceOnUse"
       id="clipPath43">
      <path
         fill="#189e7c"
         d="m 1768.235,847.6552 c 8.7504,-1.99894 17.5714,3.05331 19.6239,11.25407 2.0603,8.20075 -3.4391,16.39418 -12.2287,18.23935 -8.6721,1.8232 -17.3051,-3.22905 -19.3341,-11.31997 -2.0289,-8.09824 3.2981,-16.20381 11.9389,-18.17345 z"
         id="path44"
         style="display:none;stroke-width:0.757367" />
      <path
         id="lpe_path-effect81"
         style="stroke-width:0.757367"
         class="powerclip"
         d="m 1464.8817,843.03335 h 100.3619 v 140.93562 h -100.3619 z m 303.3533,4.62185 c -8.6408,1.96964 -13.9678,10.07521 -11.9389,18.17345 2.029,8.09092 10.662,13.14317 19.3341,11.31997 8.7896,-1.84517 14.289,-10.0386 12.2287,-18.23935 -2.0525,-8.20076 -10.8735,-13.25301 -19.6239,-11.25407 z" />
    </clipPath>
    <clipPath
       clipPathUnits="userSpaceOnUse"
       id="clipPath44">
      <path
         fill="#189e7c"
         d="m 1768.235,847.6552 c 8.7504,-1.99894 17.5714,3.05331 19.6239,11.25407 2.0603,8.20075 -3.4391,16.39418 -12.2287,18.23935 -8.6721,1.8232 -17.3051,-3.22905 -19.3341,-11.31997 -2.0289,-8.09824 3.2981,-16.20381 11.9389,-18.17345 z"
         id="path45"
         style="display:none;stroke-width:0.757367" />
      <path
         id="lpe_path-effect82"
         style="stroke-width:0.757367"
         class="powerclip"
         d="m 1908.1619,901.7441 h 56.5254 v 26.22622 h -56.5254 z M 1768.235,847.6552 c -8.6408,1.96964 -13.9678,10.07521 -11.9389,18.17345 2.029,8.09092 10.662,13.14317 19.3341,11.31997 8.7896,-1.84517 14.289,-10.0386 12.2287,-18.23935 -2.0525,-8.20076 -10.8735,-13.25301 -19.6239,-11.25407 z" />
    </clipPath>
    <clipPath
       clipPathUnits="userSpaceOnUse"
       id="clipPath45">
      <path
         fill="#189e7c"
         d="m 1768.235,847.6552 c 8.7504,-1.99894 17.5714,3.05331 19.6239,11.25407 2.0603,8.20075 -3.4391,16.39418 -12.2287,18.23935 -8.6721,1.8232 -17.3051,-3.22905 -19.3341,-11.31997 -2.0289,-8.09824 3.2981,-16.20381 11.9389,-18.17345 z"
         id="path46"
         style="display:none;stroke-width:0.757367" />
      <path
         id="lpe_path-effect83"
         style="stroke-width:0.757367"
         class="powerclip"
         d="m 1881.7174,880.4486 h 108.6995 V 986.16482 H 1881.7174 Z M 1768.235,847.6552 c -8.6408,1.96964 -13.9678,10.07521 -11.9389,18.17345 2.029,8.09092 10.662,13.14317 19.3341,11.31997 8.7896,-1.84517 14.289,-10.0386 12.2287,-18.23935 -2.0525,-8.20076 -10.8735,-13.25301 -19.6239,-11.25407 z" />
    </clipPath>
    <clipPath
       clipPathUnits="userSpaceOnUse"
       id="clipPath46">
      <path
         fill="#189e7c"
         d="m 1768.235,847.6552 c 8.7504,-1.99894 17.5714,3.05331 19.6239,11.25407 2.0603,8.20075 -3.4391,16.39418 -12.2287,18.23935 -8.6721,1.8232 -17.3051,-3.22905 -19.3341,-11.31997 -2.0289,-8.09824 3.2981,-16.20381 11.9389,-18.17345 z"
         id="path47"
         style="display:none;stroke-width:0.757367" />
      <path
         id="lpe_path-effect84"
         style="stroke-width:0.757367"
         class="powerclip"
         d="m 1021.2356,847.6011 h 128.2497 v 135.9906 h -128.2497 z m 746.9994,0.0541 c -8.6408,1.96964 -13.9678,10.07521 -11.9389,18.17345 2.029,8.09092 10.662,13.14317 19.3341,11.31997 8.7896,-1.84517 14.289,-10.0386 12.2287,-18.23935 -2.0525,-8.20076 -10.8735,-13.25301 -19.6239,-11.25407 z" />
    </clipPath>
    <clipPath
       clipPathUnits="userSpaceOnUse"
       id="clipPath47">
      <path
         fill="#189e7c"
         d="m 1768.235,847.6552 c 8.7504,-1.99894 17.5714,3.05331 19.6239,11.25407 2.0603,8.20075 -3.4391,16.39418 -12.2287,18.23935 -8.6721,1.8232 -17.3051,-3.22905 -19.3341,-11.31997 -2.0289,-8.09824 3.2981,-16.20381 11.9389,-18.17345 z"
         id="path48"
         style="display:block;stroke-width:0.757367" />
    </clipPath>
    <clipPath
       clipPathUnits="userSpaceOnUse"
       id="clipPath48">
      <path
         fill="#189e7c"
         d="m 1768.235,847.6552 c 8.7504,-1.99894 17.5714,3.05331 19.6239,11.25407 2.0603,8.20075 -3.4391,16.39418 -12.2287,18.23935 -8.6721,1.8232 -17.3051,-3.22905 -19.3341,-11.31997 -2.0289,-8.09824 3.2981,-16.20381 11.9389,-18.17345 z"
         id="path49"
         style="display:none;stroke-width:0.757367" />
      <path
         id="lpe_path-effect86"
         style="stroke-width:0.757367"
         class="powerclip"
         d="m 1160.4472,902.83266 h 64.3461 v 60.79451 h -64.3461 z M 1768.235,847.6552 c -8.6408,1.96964 -13.9678,10.07521 -11.9389,18.17345 2.029,8.09092 10.662,13.14317 19.3341,11.31997 8.7896,-1.84517 14.289,-10.0386 12.2287,-18.23935 -2.0525,-8.20076 -10.8735,-13.25301 -19.6239,-11.25407 z" />
    </clipPath>
    <clipPath
       clipPathUnits="userSpaceOnUse"
       id="clipPath49">
      <path
         fill="#189e7c"
         d="m 1768.235,847.6552 c 8.7504,-1.99894 17.5714,3.05331 19.6239,11.25407 2.0603,8.20075 -3.4391,16.39418 -12.2287,18.23935 -8.6721,1.8232 -17.3051,-3.22905 -19.3341,-11.31997 -2.0289,-8.09824 3.2981,-16.20381 11.9389,-18.17345 z"
         id="path50"
         style="display:none;stroke-width:0.757367" />
      <path
         id="lpe_path-effect87"
         style="stroke-width:0.757367"
         class="powerclip"
         d="m 1135.7484,879.46525 h 113.8568 V 986.54073 H 1135.7484 Z M 1768.235,847.6552 c -8.6408,1.96964 -13.9678,10.07521 -11.9389,18.17345 2.029,8.09092 10.662,13.14317 19.3341,11.31997 8.7896,-1.84517 14.289,-10.0386 12.2287,-18.23935 -2.0525,-8.20076 -10.8735,-13.25301 -19.6239,-11.25407 z" />
    </clipPath>
    <clipPath
       clipPathUnits="userSpaceOnUse"
       id="clipPath50">
      <path
         fill="#189e7c"
         d="m 1768.235,847.6552 c 8.7504,-1.99894 17.5714,3.05331 19.6239,11.25407 2.0603,8.20075 -3.4391,16.39418 -12.2287,18.23935 -8.6721,1.8232 -17.3051,-3.22905 -19.3341,-11.31997 -2.0289,-8.09824 3.2981,-16.20381 11.9389,-18.17345 z"
         id="path51"
         style="display:none;stroke-width:0.757367" />
      <path
         id="lpe_path-effect88"
         style="stroke-width:0.757367"
         class="powerclip"
         d="m 1561.0355,847.65579 h 190.8201 v 136.05626 h -190.8201 z m 207.1995,-5.9e-4 c -8.6408,1.96964 -13.9678,10.07521 -11.9389,18.17345 2.029,8.09092 10.662,13.14317 19.3341,11.31997 8.7896,-1.84517 14.289,-10.0386 12.2287,-18.23935 -2.0525,-8.20076 -10.8735,-13.25301 -19.6239,-11.25407 z" />
    </clipPath>
    <clipPath
       clipPathUnits="userSpaceOnUse"
       id="clipPath51">
      <path
         fill="#189e7c"
         d="m 1768.235,847.6552 c 8.7504,-1.99894 17.5714,3.05331 19.6239,11.25407 2.0603,8.20075 -3.4391,16.39418 -12.2287,18.23935 -8.6721,1.8232 -17.3051,-3.22905 -19.3341,-11.31997 -2.0289,-8.09824 3.2981,-16.20381 11.9389,-18.17345 z"
         id="path52"
         style="display:none;stroke-width:0.757367" />
      <path
         id="lpe_path-effect89"
         style="stroke-width:0.757367"
         class="powerclip"
         d="M 670.09752,759.91923 H 833.3048 V 912.10879 H 670.09752 Z M 1768.235,847.6552 c -8.6408,1.96964 -13.9678,10.07521 -11.9389,18.17345 2.029,8.09092 10.662,13.14317 19.3341,11.31997 8.7896,-1.84517 14.289,-10.0386 12.2287,-18.23935 -2.0525,-8.20076 -10.8735,-13.25301 -19.6239,-11.25407 z" />
    </clipPath>
    <clipPath
       clipPathUnits="userSpaceOnUse"
       id="clipPath52">
      <path
         fill="#189e7c"
         d="m 1768.235,847.6552 c 8.7504,-1.99894 17.5714,3.05331 19.6239,11.25407 2.0603,8.20075 -3.4391,16.39418 -12.2287,18.23935 -8.6721,1.8232 -17.3051,-3.22905 -19.3341,-11.31997 -2.0289,-8.09824 3.2981,-16.20381 11.9389,-18.17345 z"
         id="path53"
         style="display:none;stroke-width:0.757367" />
      <path
         id="lpe_path-effect90"
         style="stroke-width:0.757367"
         class="powerclip"
         d="m 766.86115,860.28506 h 58.40997 v 69.60588 H 766.86115 Z M 1768.235,847.6552 c -8.6408,1.96964 -13.9678,10.07521 -11.9389,18.17345 2.029,8.09092 10.662,13.14317 19.3341,11.31997 8.7896,-1.84517 14.289,-10.0386 12.2287,-18.23935 -2.0525,-8.20076 -10.8735,-13.25301 -19.6239,-11.25407 z" />
    </clipPath>
    <clipPath
       clipPathUnits="userSpaceOnUse"
       id="clipPath53">
      <path
         fill="#189e7c"
         d="m 1768.235,847.6552 c 8.7504,-1.99894 17.5714,3.05331 19.6239,11.25407 2.0603,8.20075 -3.4391,16.39418 -12.2287,18.23935 -8.6721,1.8232 -17.3051,-3.22905 -19.3341,-11.31997 -2.0289,-8.09824 3.2981,-16.20381 11.9389,-18.17345 z"
         id="path54"
         style="display:none;stroke-width:0.757367" />
      <path
         id="lpe_path-effect91"
         style="stroke-width:0.757367"
         class="powerclip"
         d="M 742.72189,840.00626 H 849.00967 V 950.12487 H 742.72189 Z M 1768.235,847.6552 c -8.6408,1.96964 -13.9678,10.07521 -11.9389,18.17345 2.029,8.09092 10.662,13.14317 19.3341,11.31997 8.7896,-1.84517 14.289,-10.0386 12.2287,-18.23935 -2.0525,-8.20076 -10.8735,-13.25301 -19.6239,-11.25407 z" />
    </clipPath>
    <clipPath
       clipPathUnits="userSpaceOnUse"
       id="clipPath54">
      <path
         fill="#189e7c"
         d="m 1768.235,847.6552 c 8.7504,-1.99894 17.5714,3.05331 19.6239,11.25407 2.0603,8.20075 -3.4391,16.39418 -12.2287,18.23935 -8.6721,1.8232 -17.3051,-3.22905 -19.3341,-11.31997 -2.0289,-8.09824 3.2981,-16.20381 11.9389,-18.17345 z"
         id="path55"
         style="display:none;stroke-width:0.757367" />
      <path
         id="lpe_path-effect92"
         style="stroke-width:0.757367"
         class="powerclip"
         d="m 681.2313,742.49749 h 57.99401 v 68.98567 H 681.2313 Z M 1768.235,847.6552 c -8.6408,1.96964 -13.9678,10.07521 -11.9389,18.17345 2.029,8.09092 10.662,13.14317 19.3341,11.31997 8.7896,-1.84517 14.289,-10.0386 12.2287,-18.23935 -2.0525,-8.20076 -10.8735,-13.25301 -19.6239,-11.25407 z" />
    </clipPath>
    <clipPath
       clipPathUnits="userSpaceOnUse"
       id="clipPath55">
      <path
         fill="#189e7c"
         d="m 1768.235,847.6552 c 8.7504,-1.99894 17.5714,3.05331 19.6239,11.25407 2.0603,8.20075 -3.4391,16.39418 -12.2287,18.23935 -8.6721,1.8232 -17.3051,-3.22905 -19.3341,-11.31997 -2.0289,-8.09824 3.2981,-16.20381 11.9389,-18.17345 z"
         id="path56"
         style="display:none;stroke-width:0.757367" />
      <path
         id="lpe_path-effect93"
         style="stroke-width:0.757367"
         class="powerclip"
         d="M 656.8317,721.64881 H 763.16675 V 831.84077 H 656.8317 Z M 1768.235,847.6552 c -8.6408,1.96964 -13.9678,10.07521 -11.9389,18.17345 2.029,8.09092 10.662,13.14317 19.3341,11.31997 8.7896,-1.84517 14.289,-10.0386 12.2287,-18.23935 -2.0525,-8.20076 -10.8735,-13.25301 -19.6239,-11.25407 z" />
    </clipPath>
    <clipPath
       clipPathUnits="userSpaceOnUse"
       id="clipPath56">
      <path
         fill="#189e7c"
         d="m 1768.235,847.6552 c 8.7504,-1.99894 17.5714,3.05331 19.6239,11.25407 2.0603,8.20075 -3.4391,16.39418 -12.2287,18.23935 -8.6721,1.8232 -17.3051,-3.22905 -19.3341,-11.31997 -2.0289,-8.09824 3.2981,-16.20381 11.9389,-18.17345 z"
         id="path57"
         style="display:none;stroke-width:0.757367" />
      <path
         id="lpe_path-effect94"
         style="stroke-width:0.757367"
         class="powerclip"
         d="M 723.17992,582.74711 H 984.05225 V 712.05194 H 723.17992 Z M 1768.235,847.6552 c -8.6408,1.96964 -13.9678,10.07521 -11.9389,18.17345 2.029,8.09092 10.662,13.14317 19.3341,11.31997 8.7896,-1.84517 14.289,-10.0386 12.2287,-18.23935 -2.0525,-8.20076 -10.8735,-13.25301 -19.6239,-11.25407 z" />
    </clipPath>
    <clipPath
       clipPathUnits="userSpaceOnUse"
       id="clipPath57">
      <path
         fill="#189e7c"
         d="m 1768.235,847.6552 c 8.7504,-1.99894 17.5714,3.05331 19.6239,11.25407 2.0603,8.20075 -3.4391,16.39418 -12.2287,18.23935 -8.6721,1.8232 -17.3051,-3.22905 -19.3341,-11.31997 -2.0289,-8.09824 3.2981,-16.20381 11.9389,-18.17345 z"
         id="path58"
         style="display:none;stroke-width:0.757367" />
      <path
         id="lpe_path-effect95"
         style="stroke-width:0.757367"
         class="powerclip"
         d="M 689.89374,582.74711 H 989.76992 V 765.39204 H 689.89374 Z M 1768.235,847.6552 c -8.6408,1.96964 -13.9678,10.07521 -11.9389,18.17345 2.029,8.09092 10.662,13.14317 19.3341,11.31997 8.7896,-1.84517 14.289,-10.0386 12.2287,-18.23935 -2.0525,-8.20076 -10.8735,-13.25301 -19.6239,-11.25407 z" />
    </clipPath>
    <clipPath
       clipPathUnits="userSpaceOnUse"
       id="clipPath58">
      <path
         fill="#189e7c"
         d="m 1768.235,847.6552 c 8.7504,-1.99894 17.5714,3.05331 19.6239,11.25407 2.0603,8.20075 -3.4391,16.39418 -12.2287,18.23935 -8.6721,1.8232 -17.3051,-3.22905 -19.3341,-11.31997 -2.0289,-8.09824 3.2981,-16.20381 11.9389,-18.17345 z"
         id="path59"
         style="display:none;stroke-width:0.757367" />
      <path
         id="lpe_path-effect96"
         style="stroke-width:0.757367"
         class="powerclip"
         d="M 533.63124,901.37708 H 817.72321 V 1229.6827 H 533.63124 Z M 1768.235,847.6552 c -8.6408,1.96964 -13.9678,10.07521 -11.9389,18.17345 2.029,8.09092 10.662,13.14317 19.3341,11.31997 8.7896,-1.84517 14.289,-10.0386 12.2287,-18.23935 -2.0525,-8.20076 -10.8735,-13.25301 -19.6239,-11.25407 z" />
    </clipPath>
    <clipPath
       clipPathUnits="userSpaceOnUse"
       id="clipPath59">
      <path
         fill="#189e7c"
         d="m 1768.235,847.6552 c 8.7504,-1.99894 17.5714,3.05331 19.6239,11.25407 2.0603,8.20075 -3.4391,16.39418 -12.2287,18.23935 -8.6721,1.8232 -17.3051,-3.22905 -19.3341,-11.31997 -2.0289,-8.09824 3.2981,-16.20381 11.9389,-18.17345 z"
         id="path60"
         style="display:none;stroke-width:0.757367" />
      <path
         id="lpe_path-effect97"
         style="stroke-width:0.757367"
         class="powerclip"
         d="M 533.63124,582.74711 H 989.76992 V 1229.6827 H 533.63124 Z M 1768.235,847.6552 c -8.6408,1.96964 -13.9678,10.07521 -11.9389,18.17345 2.029,8.09092 10.662,13.14317 19.3341,11.31997 8.7896,-1.84517 14.289,-10.0386 12.2287,-18.23935 -2.0525,-8.20076 -10.8735,-13.25301 -19.6239,-11.25407 z" />
    </clipPath>
    <clipPath
       clipPathUnits="userSpaceOnUse"
       id="clipPath60">
      <path
         fill="#189e7c"
         d="m 1768.235,847.6552 c 8.7504,-1.99894 17.5714,3.05331 19.6239,11.25407 2.0603,8.20075 -3.4391,16.39418 -12.2287,18.23935 -8.6721,1.8232 -17.3051,-3.22905 -19.3341,-11.31997 -2.0289,-8.09824 3.2981,-16.20381 11.9389,-18.17345 z"
         id="path61"
         style="display:none;stroke-width:0.757367" />
      <path
         id="lpe_path-effect98"
         style="stroke-width:0.757367"
         class="powerclip"
         d="m 374.03551,1117.6712 h 48.39664 v 50.3448 H 374.03551 Z M 1768.235,847.6552 c -8.6408,1.96964 -13.9678,10.07521 -11.9389,18.17345 2.029,8.09092 10.662,13.14317 19.3341,11.31997 8.7896,-1.84517 14.289,-10.0386 12.2287,-18.23935 -2.0525,-8.20076 -10.8735,-13.25301 -19.6239,-11.25407 z" />
    </clipPath>
    <clipPath
       clipPathUnits="userSpaceOnUse"
       id="clipPath61">
      <path
         fill="#189e7c"
         d="m 1768.235,847.6552 c 8.7504,-1.99894 17.5714,3.05331 19.6239,11.25407 2.0603,8.20075 -3.4391,16.39418 -12.2287,18.23935 -8.6721,1.8232 -17.3051,-3.22905 -19.3341,-11.31997 -2.0289,-8.09824 3.2981,-16.20381 11.9389,-18.17345 z"
         id="path62"
         style="display:none;stroke-width:0.757367" />
      <path
         id="lpe_path-effect99"
         style="stroke-width:0.757367"
         class="powerclip"
         d="m 397.87398,1162.1674 h 49.23175 v 49.9914 H 397.87398 Z M 1768.235,847.6552 c -8.6408,1.96964 -13.9678,10.07521 -11.9389,18.17345 2.029,8.09092 10.662,13.14317 19.3341,11.31997 8.7896,-1.84517 14.289,-10.0386 12.2287,-18.23935 -2.0525,-8.20076 -10.8735,-13.25301 -19.6239,-11.25407 z" />
    </clipPath>
    <clipPath
       clipPathUnits="userSpaceOnUse"
       id="clipPath62">
      <path
         fill="#189e7c"
         d="m 1768.235,847.6552 c 8.7504,-1.99894 17.5714,3.05331 19.6239,11.25407 2.0603,8.20075 -3.4391,16.39418 -12.2287,18.23935 -8.6721,1.8232 -17.3051,-3.22905 -19.3341,-11.31997 -2.0289,-8.09824 3.2981,-16.20381 11.9389,-18.17345 z"
         id="path63"
         style="display:none;stroke-width:0.757367" />
      <path
         id="lpe_path-effect100"
         style="stroke-width:0.757367"
         class="powerclip"
         d="m 148.68751,712.60455 h 48.72644 v 51.53168 H 148.68751 Z M 1768.235,847.6552 c -8.6408,1.96964 -13.9678,10.07521 -11.9389,18.17345 2.029,8.09092 10.662,13.14317 19.3341,11.31997 8.7896,-1.84517 14.289,-10.0386 12.2287,-18.23935 -2.0525,-8.20076 -10.8735,-13.25301 -19.6239,-11.25407 z" />
    </clipPath>
    <clipPath
       clipPathUnits="userSpaceOnUse"
       id="clipPath63">
      <path
         fill="#189e7c"
         d="m 1768.235,847.6552 c 8.7504,-1.99894 17.5714,3.05331 19.6239,11.25407 2.0603,8.20075 -3.4391,16.39418 -12.2287,18.23935 -8.6721,1.8232 -17.3051,-3.22905 -19.3341,-11.31997 -2.0289,-8.09824 3.2981,-16.20381 11.9389,-18.17345 z"
         id="path64"
         style="display:none;stroke-width:0.757367" />
      <path
         id="lpe_path-effect101"
         style="stroke-width:0.757367"
         class="powerclip"
         d="m 216.79895,834.86852 h 62.10158 v 74.88612 H 216.79895 Z M 1768.235,847.6552 c -8.6408,1.96964 -13.9678,10.07521 -11.9389,18.17345 2.029,8.09092 10.662,13.14317 19.3341,11.31997 8.7896,-1.84517 14.289,-10.0386 12.2287,-18.23935 -2.0525,-8.20076 -10.8735,-13.25301 -19.6239,-11.25407 z" />
    </clipPath>
    <clipPath
       clipPathUnits="userSpaceOnUse"
       id="clipPath64">
      <path
         fill="#189e7c"
         d="m 1768.235,847.6552 c 8.7504,-1.99894 17.5714,3.05331 19.6239,11.25407 2.0603,8.20075 -3.4391,16.39418 -12.2287,18.23935 -8.6721,1.8232 -17.3051,-3.22905 -19.3341,-11.31997 -2.0289,-8.09824 3.2981,-16.20381 11.9389,-18.17345 z"
         id="path65"
         style="display:none;stroke-width:0.757367" />
      <path
         id="lpe_path-effect102"
         style="stroke-width:0.757367"
         class="powerclip"
         d="m 255.94523,905.24954 h 62.50616 v 76.26194 H 255.94523 Z M 1768.235,847.6552 c -8.6408,1.96964 -13.9678,10.07521 -11.9389,18.17345 2.029,8.09092 10.662,13.14317 19.3341,11.31997 8.7896,-1.84517 14.289,-10.0386 12.2287,-18.23935 -2.0525,-8.20076 -10.8735,-13.25301 -19.6239,-11.25407 z" />
    </clipPath>
    <clipPath
       clipPathUnits="userSpaceOnUse"
       id="clipPath65">
      <path
         fill="#189e7c"
         d="m 1768.235,847.6552 c 8.7504,-1.99894 17.5714,3.05331 19.6239,11.25407 2.0603,8.20075 -3.4391,16.39418 -12.2287,18.23935 -8.6721,1.8232 -17.3051,-3.22905 -19.3341,-11.31997 -2.0289,-8.09824 3.2981,-16.20381 11.9389,-18.17345 z"
         id="path66"
         style="display:none;stroke-width:0.757367" />
      <path
         id="lpe_path-effect103"
         style="stroke-width:0.757367"
         class="powerclip"
         d="m 308.80031,1000.2582 h 63.52564 v 76.5233 H 308.80031 Z M 1768.235,847.6552 c -8.6408,1.96964 -13.9678,10.07521 -11.9389,18.17345 2.029,8.09092 10.662,13.14317 19.3341,11.31997 8.7896,-1.84517 14.289,-10.0386 12.2287,-18.23935 -2.0525,-8.20076 -10.8735,-13.25301 -19.6239,-11.25407 z" />
    </clipPath>
    <clipPath
       clipPathUnits="userSpaceOnUse"
       id="clipPath66">
      <path
         fill="#189e7c"
         d="m 1768.235,847.6552 c 8.7504,-1.99894 17.5714,3.05331 19.6239,11.25407 2.0603,8.20075 -3.4391,16.39418 -12.2287,18.23935 -8.6721,1.8232 -17.3051,-3.22905 -19.3341,-11.31997 -2.0289,-8.09824 3.2981,-16.20381 11.9389,-18.17345 z"
         id="path67"
         style="display:none;stroke-width:0.757367" />
      <path
         id="lpe_path-effect104"
         style="stroke-width:0.757367"
         class="powerclip"
         d="m 175.32709,760.25458 h 63.91411 v 77.6401 H 175.32709 Z M 1768.235,847.6552 c -8.6408,1.96964 -13.9678,10.07521 -11.9389,18.17345 2.029,8.09092 10.662,13.14317 19.3341,11.31997 8.7896,-1.84517 14.289,-10.0386 12.2287,-18.23935 -2.0525,-8.20076 -10.8735,-13.25301 -19.6239,-11.25407 z" />
    </clipPath>
    <clipPath
       clipPathUnits="userSpaceOnUse"
       id="clipPath67">
      <path
         fill="#189e7c"
         d="m 1768.235,847.6552 c 8.7504,-1.99894 17.5714,3.05331 19.6239,11.25407 2.0603,8.20075 -3.4391,16.39418 -12.2287,18.23935 -8.6721,1.8232 -17.3051,-3.22905 -19.3341,-11.31997 -2.0289,-8.09824 3.2981,-16.20381 11.9389,-18.17345 z"
         id="path68"
         style="display:none;stroke-width:0.757367" />
      <path
         id="lpe_path-effect105"
         style="stroke-width:0.757367"
         class="powerclip"
         d="m 340.69754,713.265 h 52.79573 v 39.0973 H 340.69754 Z M 1768.235,847.6552 c -8.6408,1.96964 -13.9678,10.07521 -11.9389,18.17345 2.029,8.09092 10.662,13.14317 19.3341,11.31997 8.7896,-1.84517 14.289,-10.0386 12.2287,-18.23935 -2.0525,-8.20076 -10.8735,-13.25301 -19.6239,-11.25407 z" />
    </clipPath>
    <clipPath
       clipPathUnits="userSpaceOnUse"
       id="clipPath68">
      <path
         fill="#189e7c"
         d="m 1768.235,847.6552 c 8.7504,-1.99894 17.5714,3.05331 19.6239,11.25407 2.0603,8.20075 -3.4391,16.39418 -12.2287,18.23935 -8.6721,1.8232 -17.3051,-3.22905 -19.3341,-11.31997 -2.0289,-8.09824 3.2981,-16.20381 11.9389,-18.17345 z"
         id="path69"
         style="display:none;stroke-width:0.757367" />
      <path
         id="lpe_path-effect106"
         style="stroke-width:0.757367"
         class="powerclip"
         d="m 312.83946,723.13446 h 37.72961 v 52.30197 H 312.83946 Z M 1768.235,847.6552 c -8.6408,1.96964 -13.9678,10.07521 -11.9389,18.17345 2.029,8.09092 10.662,13.14317 19.3341,11.31997 8.7896,-1.84517 14.289,-10.0386 12.2287,-18.23935 -2.0525,-8.20076 -10.8735,-13.25301 -19.6239,-11.25407 z" />
    </clipPath>
    <clipPath
       clipPathUnits="userSpaceOnUse"
       id="clipPath69">
      <path
         fill="#189e7c"
         d="m 1768.235,847.6552 c 8.7504,-1.99894 17.5714,3.05331 19.6239,11.25407 2.0603,8.20075 -3.4391,16.39418 -12.2287,18.23935 -8.6721,1.8232 -17.3051,-3.22905 -19.3341,-11.31997 -2.0289,-8.09824 3.2981,-16.20381 11.9389,-18.17345 z"
         id="path70"
         style="display:none;stroke-width:0.757367" />
      <path
         id="lpe_path-effect107"
         style="stroke-width:0.757367"
         class="powerclip"
         d="m 370.71072,754.13184 h 38.21922 v 53.71367 H 370.71072 Z M 1768.235,847.6552 c -8.6408,1.96964 -13.9678,10.07521 -11.9389,18.17345 2.029,8.09092 10.662,13.14317 19.3341,11.31997 8.7896,-1.84517 14.289,-10.0386 12.2287,-18.23935 -2.0525,-8.20076 -10.8735,-13.25301 -19.6239,-11.25407 z" />
    </clipPath>
    <clipPath
       clipPathUnits="userSpaceOnUse"
       id="clipPath70">
      <path
         fill="#189e7c"
         d="m 1768.235,847.6552 c 8.7504,-1.99894 17.5714,3.05331 19.6239,11.25407 2.0603,8.20075 -3.4391,16.39418 -12.2287,18.23935 -8.6721,1.8232 -17.3051,-3.22905 -19.3341,-11.31997 -2.0289,-8.09824 3.2981,-16.20381 11.9389,-18.17345 z"
         id="path71"
         style="display:none;stroke-width:0.757367" />
      <path
         id="lpe_path-effect108"
         style="stroke-width:0.757367"
         class="powerclip"
         d="m 327.04073,776.48475 h 53.34958 v 41.12039 H 327.04073 Z M 1768.235,847.6552 c -8.6408,1.96964 -13.9678,10.07521 -11.9389,18.17345 2.029,8.09092 10.662,13.14317 19.3341,11.31997 8.7896,-1.84517 14.289,-10.0386 12.2287,-18.23935 -2.0525,-8.20076 -10.8735,-13.25301 -19.6239,-11.25407 z" />
    </clipPath>
    <clipPath
       clipPathUnits="userSpaceOnUse"
       id="clipPath71">
      <path
         fill="#189e7c"
         d="m 1768.235,847.6552 c 8.7504,-1.99894 17.5714,3.05331 19.6239,11.25407 2.0603,8.20075 -3.4391,16.39418 -12.2287,18.23935 -8.6721,1.8232 -17.3051,-3.22905 -19.3341,-11.31997 -2.0289,-8.09824 3.2981,-16.20381 11.9389,-18.17345 z"
         id="path72"
         style="display:none;stroke-width:0.757367" />
      <path
         id="lpe_path-effect109"
         style="stroke-width:0.757367"
         class="powerclip"
         d="m 342.99365,708.59978 h 49.51098 v 40.89958 H 342.99365 Z M 1768.235,847.6552 c -8.6408,1.96964 -13.9678,10.07521 -11.9389,18.17345 2.029,8.09092 10.662,13.14317 19.3341,11.31997 8.7896,-1.84517 14.289,-10.0386 12.2287,-18.23935 -2.0525,-8.20076 -10.8735,-13.25301 -19.6239,-11.25407 z" />
    </clipPath>
    <clipPath
       clipPathUnits="userSpaceOnUse"
       id="clipPath72">
      <path
         fill="#189e7c"
         d="m 1768.235,847.6552 c 8.7504,-1.99894 17.5714,3.05331 19.6239,11.25407 2.0603,8.20075 -3.4391,16.39418 -12.2287,18.23935 -8.6721,1.8232 -17.3051,-3.22905 -19.3341,-11.31997 -2.0289,-8.09824 3.2981,-16.20381 11.9389,-18.17345 z"
         id="path73"
         style="display:none;stroke-width:0.757367" />
      <path
         id="lpe_path-effect110"
         style="stroke-width:0.757367"
         class="powerclip"
         d="m 327.95338,779.37698 h 49.82198 v 42.5646 H 327.95338 Z M 1768.235,847.6552 c -8.6408,1.96964 -13.9678,10.07521 -11.9389,18.17345 2.029,8.09092 10.662,13.14317 19.3341,11.31997 8.7896,-1.84517 14.289,-10.0386 12.2287,-18.23935 -2.0525,-8.20076 -10.8735,-13.25301 -19.6239,-11.25407 z" />
    </clipPath>
    <clipPath
       clipPathUnits="userSpaceOnUse"
       id="clipPath73">
      <path
         fill="#189e7c"
         d="m 1768.235,847.6552 c 8.7504,-1.99894 17.5714,3.05331 19.6239,11.25407 2.0603,8.20075 -3.4391,16.39418 -12.2287,18.23935 -8.6721,1.8232 -17.3051,-3.22905 -19.3341,-11.31997 -2.0289,-8.09824 3.2981,-16.20381 11.9389,-18.17345 z"
         id="path74"
         style="display:none;stroke-width:0.757367" />
      <path
         id="lpe_path-effect111"
         style="stroke-width:0.757367"
         class="powerclip"
         d="m 305.23162,723.94502 h 42.21643 v 49.14907 H 305.23162 Z M 1768.235,847.6552 c -8.6408,1.96964 -13.9678,10.07521 -11.9389,18.17345 2.029,8.09092 10.662,13.14317 19.3341,11.31997 8.7896,-1.84517 14.289,-10.0386 12.2287,-18.23935 -2.0525,-8.20076 -10.8735,-13.25301 -19.6239,-11.25407 z" />
    </clipPath>
    <clipPath
       clipPathUnits="userSpaceOnUse"
       id="clipPath74">
      <path
         fill="#189e7c"
         d="m 1768.235,847.6552 c 8.7504,-1.99894 17.5714,3.05331 19.6239,11.25407 2.0603,8.20075 -3.4391,16.39418 -12.2287,18.23935 -8.6721,1.8232 -17.3051,-3.22905 -19.3341,-11.31997 -2.0289,-8.09824 3.2981,-16.20381 11.9389,-18.17345 z"
         id="path75"
         style="display:none;stroke-width:0.757367" />
      <path
         id="lpe_path-effect112"
         style="stroke-width:0.757367"
         class="powerclip"
         d="m 373.56382,756.95305 h 43.96616 v 48.86717 H 373.56382 Z M 1768.235,847.6552 c -8.6408,1.96964 -13.9678,10.07521 -11.9389,18.17345 2.029,8.09092 10.662,13.14317 19.3341,11.31997 8.7896,-1.84517 14.289,-10.0386 12.2287,-18.23935 -2.0525,-8.20076 -10.8735,-13.25301 -19.6239,-11.25407 z" />
    </clipPath>
    <clipPath
       clipPathUnits="userSpaceOnUse"
       id="clipPath75">
      <path
         fill="#189e7c"
         d="m 1768.235,847.6552 c 8.7504,-1.99894 17.5714,3.05331 19.6239,11.25407 2.0603,8.20075 -3.4391,16.39418 -12.2287,18.23935 -8.6721,1.8232 -17.3051,-3.22905 -19.3341,-11.31997 -2.0289,-8.09824 3.2981,-16.20381 11.9389,-18.17345 z"
         id="path76"
         style="display:none;stroke-width:0.757367" />
      <path
         id="lpe_path-effect113"
         style="stroke-width:0.757367"
         class="powerclip"
         d="m 305.23162,708.59978 h 112.29836 v 113.3418 H 305.23162 Z M 1768.235,847.6552 c -8.6408,1.96964 -13.9678,10.07521 -11.9389,18.17345 2.029,8.09092 10.662,13.14317 19.3341,11.31997 8.7896,-1.84517 14.289,-10.0386 12.2287,-18.23935 -2.0525,-8.20076 -10.8735,-13.25301 -19.6239,-11.25407 z" />
    </clipPath>
    <clipPath
       clipPathUnits="userSpaceOnUse"
       id="clipPath76">
      <path
         fill="#189e7c"
         d="m 1768.235,847.6552 c 8.7504,-1.99894 17.5714,3.05331 19.6239,11.25407 2.0603,8.20075 -3.4391,16.39418 -12.2287,18.23935 -8.6721,1.8232 -17.3051,-3.22905 -19.3341,-11.31997 -2.0289,-8.09824 3.2981,-16.20381 11.9389,-18.17345 z"
         id="path77"
         style="display:none;stroke-width:0.757367" />
      <path
         id="lpe_path-effect114"
         style="stroke-width:0.757367"
         class="powerclip"
         d="M 85.910279,584.05442 H 716.75226 V 1240.3416 H 85.910279 Z M 1768.235,847.6552 c -8.6408,1.96964 -13.9678,10.07521 -11.9389,18.17345 2.029,8.09092 10.662,13.14317 19.3341,11.31997 8.7896,-1.84517 14.289,-10.0386 12.2287,-18.23935 -2.0525,-8.20076 -10.8735,-13.25301 -19.6239,-11.25407 z" />
    </clipPath>
    <clipPath
       clipPathUnits="userSpaceOnUse"
       id="clipPath48-0">
      <path
         fill="#189e7c"
         d="m 1768.235,847.6552 c 8.7504,-1.99894 17.5714,3.05331 19.6239,11.25407 2.0603,8.20075 -3.4391,16.39418 -12.2287,18.23935 -8.6721,1.8232 -17.3051,-3.22905 -19.3341,-11.31997 -2.0289,-8.09824 3.2981,-16.20381 11.9389,-18.17345 z"
         id="path49-9"
         style="display:none;stroke-width:0.757367" />
      <path
         id="lpe_path-effect86-4"
         style="stroke-width:0.757367"
         class="powerclip"
         d="m 1160.4472,902.83266 h 64.3461 v 60.79451 h -64.3461 z M 1768.235,847.6552 c -8.6408,1.96964 -13.9678,10.07521 -11.9389,18.17345 2.029,8.09092 10.662,13.14317 19.3341,11.31997 8.7896,-1.84517 14.289,-10.0386 12.2287,-18.23935 -2.0525,-8.20076 -10.8735,-13.25301 -19.6239,-11.25407 z" />
    </clipPath>
  </defs>
  <path
     fill="#189e7c"
     d="m 711.75226,1224.6827 c -5.92241,6.9487 -14.97838,10.1557 -24.26154,10.3608 -19.66305,0.4393 -39.47494,0.2123 -59.13799,0.183 H 520.48796 l -85.06659,0.037 c -6.11043,0 -12.51071,0.1758 -18.61722,0 -16.75198,-0.4832 -42.58187,3.1339 -52.12902,-13.5092 -5.08341,-8.8671 -9.92475,-17.9538 -14.91964,-26.8063 L 309.11565,1121.7559 203.59635,933.07565 129.92493,801.30494 107.0163,760.31436 c -4.70346,-8.42993 -9.643515,-16.81081 -13.681882,-25.50507 -6.962757,-14.992 1.826079,-31.77572 16.766082,-39.0246 13.92787,-6.75756 27.93485,-13.3372 41.8494,-20.09843 l 97.86324,-47.56436 51.59475,-25.46407 c 19.76176,-9.69812 43.04328,-25.01156 61.49913,-0.0234 7.21031,9.76109 13.41709,23.06095 19.33011,33.75049 10.80528,19.53609 21.7641,38.9975 32.87647,58.38203 41.56894,72.86808 82.74305,145.93165 123.51764,219.18926 1.15942,3.42455 3.03172,6.55841 4.70033,9.78526 9.19698,17.84615 19.38103,35.21051 29.09505,52.80991 l 90.56755,161.91362 33.28617,59.6385 c 3.03955,5.4549 12.06418,22.6985 15.47192,26.5792 z"
     id="path3"
     style="stroke-width:0.757367"
     clip-path="url(#clipPath76)"
     transform="matrix(0.92650568,0,0,0.92650568,-84.22889,-544.55104)" />
  <path
     fill="url(#Gradient1)"
     d="m 347.99365,718.265 c 8.31567,-3.59881 14.08846,-6.26405 23.62543,-3.55707 7.55108,2.14318 14.40887,12.31138 15.88555,19.22637 l 0.98864,1.82613 c 5.17742,6.72096 9.18366,16.34073 14.05712,23.37141 l 1.37955,2.82121 c 2.52016,5.1467 6.85622,12.44683 8.60004,17.28455 -2.28984,9.26977 -6.1449,19.04771 -17.39828,21.58262 l -2.46689,2.02529 c -4.97373,2.1073 -12.73946,5.49597 -17.2745,8.39113 l -2.61495,1.3685 c -24.31481,9.34739 -28.69082,3.4736 -39.82198,-16.55966 l -0.91265,-2.48146 c -4.8954,-6.81322 -8.42848,-15.96657 -13.80722,-23.12759 l -0.39405,-2.34234 c -12.02188,-15.74691 -10.26239,-29.81266 8.62119,-39.14907 l 2.77947,-0.81056 c 2.58909,-1.71117 13.72183,-7.62304 16.45742,-8.50022 0.91813,-1.0478 0.78417,-0.73734 2.29611,-1.36924 z"
     id="path4"
     style="fill:url(#Gradient1);stroke-width:0.757367"
     clip-path="url(#clipPath75)"
     transform="matrix(0.92650568,0,0,0.92650568,-84.22889,-544.55104)" />
  <path
     fill="#f2be78"
     d="m 403.92994,761.95305 c 2.52016,5.1467 6.85622,12.44683 8.60004,17.28455 -2.28984,9.26977 -6.1449,19.04771 -17.39828,21.58262 -5.33487,-8.79531 -11.4641,-17.12273 -16.56788,-26.0286 6.54365,-4.48186 17.85421,-9.37668 25.36612,-12.83857 z"
     id="path5"
     style="stroke-width:0.757367"
     clip-path="url(#clipPath74)"
     transform="matrix(0.92650568,0,0,0.92650568,-84.22889,-544.55104)" />
  <path
     fill="#f2be78"
     d="m 326.46065,728.94502 c 4.88365,8.08506 12.21773,19.56904 15.9874,27.93088 -8.1872,4.04253 -16.23651,7.54762 -24.60859,11.21819 -12.02188,-15.74691 -10.26239,-29.81266 8.62119,-39.14907 z"
     id="path6"
     style="stroke-width:0.757367"
     clip-path="url(#clipPath73)"
     transform="matrix(0.92650568,0,0,0.92650568,-84.22889,-544.55104)" />
  <path
     fill="#f2be78"
     d="m 332.95338,796.04548 c 7.65214,-2.67916 17.03243,-8.24029 24.76056,-11.6685 l 15.06142,28.22816 c -24.31481,9.34739 -28.69082,3.4736 -39.82198,-16.55966 z"
     id="path7"
     style="stroke-width:0.757367"
     clip-path="url(#clipPath72)"
     transform="matrix(0.92650568,0,0,0.92650568,-84.22889,-544.55104)" />
  <path
     fill="#f2be78"
     d="m 347.99365,718.265 c 8.31567,-3.59881 14.08846,-6.26405 23.62543,-3.55707 7.55108,2.14318 14.40887,12.31138 15.88555,19.22637 -8.18797,3.08187 -15.43588,6.75976 -23.24783,10.56506 -6.01721,-8.345 -10.26082,-17.61698 -16.26315,-26.23436 z"
     id="path8"
     style="stroke-width:0.757367"
     clip-path="url(#clipPath71)"
     transform="matrix(0.92650568,0,0,0.92650568,-84.22889,-544.55104)" />
  <path
     fill="#0f1c1c"
     d="m 332.04073,793.56402 c 7.35602,-3.2415 19.93645,-10.06496 26.68221,-12.07927 6.18955,9.13285 10.94551,20.19582 16.66737,29.75189 l -2.61495,1.3685 -15.06142,-28.22816 c -7.72813,3.42821 -17.10842,8.98934 -24.76056,11.6685 z"
     id="path9"
     style="stroke-width:0.757367"
     clip-path="url(#clipPath70)"
     transform="matrix(0.92650568,0,0,0.92650568,-84.22889,-544.55104)" />
  <path
     fill="#0f1c1c"
     d="m 402.55039,759.13184 1.37955,2.82121 c -7.51191,3.46189 -18.82247,8.35671 -25.36612,12.83857 5.10378,8.90587 11.23301,17.23329 16.56788,26.0286 l -2.46689,2.02529 c -4.3196,-8.87731 -14.0767,-21.22603 -16.95409,-28.91131 5.79943,-5.1921 19.1421,-10.84257 26.83967,-14.80236 z"
     id="path10"
     style="stroke-width:0.757367"
     clip-path="url(#clipPath69)"
     transform="matrix(0.92650568,0,0,0.92650568,-84.22889,-544.55104)" />
  <path
     fill="#0f1c1c"
     d="m 326.46065,728.94502 2.77947,-0.81056 c 4.2961,7.20056 13.55888,21.86233 16.32895,28.8586 -5.58948,4.51993 -20.10567,10.93628 -27.33556,13.44337 l -0.39405,-2.34234 c 8.37208,-3.67057 16.42139,-7.17566 24.60859,-11.21819 -3.76967,-8.36184 -11.10375,-19.84582 -15.9874,-27.93088 z"
     id="path11"
     style="stroke-width:0.757367"
     clip-path="url(#clipPath68)"
     transform="matrix(0.92650568,0,0,0.92650568,-84.22889,-544.55104)" />
  <path
     fill="#0f1c1c"
     d="m 345.69754,719.63424 c 0.91813,-1.0478 0.78417,-0.73734 2.29611,-1.36924 6.00233,8.61738 10.24594,17.88936 16.26315,26.23436 7.81195,-3.8053 15.05986,-7.48319 23.24783,-10.56506 l 0.98864,1.82613 c -8.36424,3.88437 -16.46918,7.86247 -24.93917,11.60187 -4.92203,-5.49451 -13.27687,-20.61171 -17.85656,-27.72806 z"
     id="path12"
     style="stroke-width:0.757367"
     clip-path="url(#clipPath67)"
     transform="matrix(0.92650568,0,0,0.92650568,-84.22889,-544.55104)" />
  <path
     fill="#0b2841"
     d="m 198.02019,765.25458 c 3.23775,0.27458 7.93651,0.89476 9.82213,3.80164 8.74418,13.47559 16.16287,27.92722 23.91293,41.9322 7.52523,13.59714 -3.35447,17.82053 -15.01756,21.90626 -2.66743,-0.0212 -5.25418,-0.1772 -7.64822,-1.4117 -4.67526,-2.41044 -26.77152,-43.36148 -28.50202,-50.06047 -0.72777,-2.81828 0.12691,-5.31511 1.85741,-7.65892 3.49862,-4.73813 9.75476,-7.33015 15.57533,-8.50901 z"
     id="path14"
     style="stroke-width:0.757367"
     clip-path="url(#clipPath66)"
     transform="matrix(0.92650568,0,0,0.92650568,-84.22889,-544.55104)" />
  <path
     fill="#0b2841"
     d="m 329.31062,1005.4224 c 2.39012,-0.2124 5.07871,-0.3442 7.37482,0.4246 6.54756,2.204 25.70768,38.7486 28.81538,46.122 1.35839,3.2217 2.73951,6.3995 1.03172,9.731 -2.9095,5.6673 -10.4504,7.6663 -16.22946,9.797 -10.30547,2.3357 -15.83776,-10.2656 -19.45467,-17.5071 -4.98548,-9.9801 -16.66189,-26.4768 -17.0481,-36.8375 3.18291,-7.0073 8.37521,-8.6694 15.51031,-11.73 z"
     id="path15"
     style="stroke-width:0.757367"
     clip-path="url(#clipPath65)"
     transform="matrix(0.92650568,0,0,0.92650568,-84.22889,-544.55104)" />
  <path
     fill="#0b2841"
     d="m 275.93836,910.29147 c 17.90905,-1.19716 20.71044,23.54788 30.14479,34.59986 3.3153,3.88364 8.56244,15.99073 7.12414,20.51945 -1.45554,4.58363 -11.6012,8.61152 -15.92394,10.47646 -2.49431,0.60993 -4.58204,1.03315 -7.08497,-0.0103 -6.77396,-2.82267 -24.01007,-36.83968 -27.29874,-44.43856 -1.69211,-3.91 -2.89775,-7.26645 -0.95886,-11.26871 2.65255,-5.47547 8.27571,-7.94521 13.99758,-9.87825 z"
     id="path16"
     style="stroke-width:0.757367"
     clip-path="url(#clipPath64)"
     transform="matrix(0.92650568,0,0,0.92650568,-84.22889,-544.55104)" />
  <path
     fill="#0b2841"
     d="m 238.00434,839.90486 c 3.83547,-0.1545 9.24242,0.0395 11.51503,3.51973 7.69601,11.78785 13.79939,25.0328 20.92509,37.13476 8.28903,14.07674 0.7215,18.73506 -12.65721,24.10143 -2.35722,0.22698 -5.00193,0.093 -7.13432,-0.97018 -6.70032,-3.34107 -25.84947,-38.99384 -28.29991,-46.91123 -0.92988,-3.00353 -0.73717,-5.53404 0.9432,-8.27031 3.0654,-4.99294 9.09279,-7.12367 14.70812,-8.6042 z"
     id="path17"
     style="stroke-width:0.757367"
     clip-path="url(#clipPath63)"
     transform="matrix(0.92650568,0,0,0.92650568,-84.22889,-544.55104)" />
  <path
     fill="#0b2841"
     d="m 173.70146,717.60455 c 6.55618,1.47174 8.15821,4.17579 11.37089,9.43233 12.26238,20.06329 9.84406,24.41774 -12.42376,32.09935 -7.39675,-1.81954 -9.17191,-5.32316 -13.06849,-11.09078 -12.09865,-17.90693 -4.67291,-24.81972 14.12136,-30.4409 z"
     id="path18"
     style="stroke-width:0.757367"
     clip-path="url(#clipPath62)"
     transform="matrix(0.92650568,0,0,0.92650568,-84.22889,-544.55104)" />
  <path
     fill="#0b2841"
     d="m 419.41361,1167.1896 c 11.5213,-0.5346 15.27451,8.684 19.93411,17.1923 7.86757,14.3659 -2.37915,17.5291 -14.61176,22.5667 -9.92789,1.9989 -16.25061,-10.7342 -19.85107,-17.9099 -6.4042,-12.7697 3.58635,-17.617 14.52872,-21.8491 z"
     id="path19"
     style="stroke-width:0.757367"
     clip-path="url(#clipPath61)"
     transform="matrix(0.92650568,0,0,0.92650568,-84.22889,-544.55104)" />
  <path
     fill="#0b2841"
     d="m 398.18614,1122.6712 c 7.14372,0.9592 9.40379,4.9351 12.78176,10.3315 12.16681,19.4328 6.77475,23.0426 -12.94314,30.0133 -10.04304,-0.6078 -14.76766,-12.0815 -17.86831,-19.8649 -4.89304,-12.2865 7.17192,-18.0197 18.02969,-20.4799 z"
     id="path20"
     style="stroke-width:0.757367"
     clip-path="url(#clipPath60)"
     transform="matrix(0.92650568,0,0,0.92650568,-84.22889,-544.55104)" />
  <path
     fill="#189e7c"
     d="m 1733.4369,852.87585 c 4.716,-0.14644 9.6278,-0.91526 13.3802,1.66944 1.3396,3.478 -32.6516,113.05323 -37.0229,123.77279 -8.6486,0.62238 -17.9161,0.35878 -26.6195,0.20502 -3.5488,-5.80643 -7.2542,-20.52385 -9.432,-27.34073 -5.7423,-17.98308 -10.6149,-36.78623 -17.2189,-54.51303 -1.559,9.31371 -21.1985,75.13939 -25.1311,81.72928 -8.633,0.1977 -17.2737,0.20502 -25.9145,0.0293 -3.2197,-6.33362 -7.074,-20.17239 -9.5025,-27.56771 -6.2984,-18.86905 -12.4167,-37.78936 -18.3548,-56.76092 -3.3842,-11.11495 -9.4007,-26.35224 -11.5315,-37.77472 -0.2272,-1.21546 0.2742,-1.2594 1.3083,-2.24788 5.0215,-1.39852 18.8483,-1.85249 24.1048,-0.16841 4.4732,4.78133 22.1386,71.77123 26.9878,83.98449 l 0.2585,0.63702 16.2788,-52.91682 c 3.0317,-10.03859 6.416,-22.63261 10.1684,-32.29046 8.0689,-0.29288 16.1456,-0.31485 24.2145,-0.0659 3.1101,6.87546 7.3247,22.21526 9.5965,29.91811 5.4054,18.63474 10.9205,37.2402 16.5452,55.80904 6.3925,-18.65671 11.2338,-38.71194 17.0544,-57.60296 2.7888,-9.05744 5.2878,-19.47679 9.0481,-28.16812 z"
     id="path30"
     style="stroke-width:0.757367"
     clip-path="url(#clipPath50)"
     transform="translate(-185.41686,-599.86487)" />
  <path
     fill="#0b2841"
     d="m 1186.1217,884.85879 c 28.5663,-3.39746 54.6351,15.58143 58.1008,42.30709 3.4657,26.71835 -16.9956,50.96915 -45.6034,54.05175 -28.368,3.05332 -54.0514,-15.87432 -57.4882,-42.373 -3.4367,-26.49868 16.6635,-50.61035 44.9908,-53.98584 z"
     id="path31"
     style="stroke-width:0.757367"
     clip-path="url(#clipPath49)"
     transform="matrix(0.99999513,0,0,0.99999513,-185.4113,-599.86068)" />
  <path
     fill="#e9e9e8"
     d="m 1187.318,908.32612 c 14.7598,-2.74579 29.095,6.24575 31.97,20.04791 2.8743,13.80948 -6.8068,27.17231 -21.5901,29.80095 -14.6964,2.61399 -28.8875,-6.37023 -31.7453,-20.09917 -2.8578,-13.72161 6.6933,-27.02587 21.3654,-29.74969 z"
     id="path32"
     style="fill:#ffffff;fill-opacity:1;stroke-width:0.757367"
     clip-path="url(#clipPath48)"
     transform="translate(-185.41686,-599.86487)" />
  <path
     fill="#e9e9e8"
     d="m 1187.318,908.32612 c 14.7598,-2.74579 29.095,6.24575 31.97,20.04791 2.8743,13.80948 -6.8068,27.17231 -21.5901,29.80095 -14.6964,2.61399 -28.8875,-6.37023 -31.7453,-20.09917 -2.8578,-13.72161 6.6933,-27.02587 21.3654,-29.74969 z"
     id="path32-2"
     style="display:block;fill:#189e7c;fill-opacity:1;stroke-width:0.757367"
     clip-path="url(#clipPath48-0)"
     transform="matrix(0.48268938,0,0,0.48268938,1010.5295,-183.83293)" />
  <path
     fill="#0b2841"
     d="m 1118.766,852.86853 c 6.6431,-0.0586 20.9219,-1.21547 25.7171,1.7866 0.3486,2.63595 -40.5569,114.71534 -45.3778,123.74349 -8.8954,0.36611 -18.6455,0.10984 -27.609,0.0513 -3.4234,-5.49158 -9.1805,-22.17865 -11.555,-28.6221 l -19.1859,-51.69402 c -2.9213,-6.80224 -15.7916,-38.53622 -14.4175,-43.92528 3.2362,-2.20396 21.4382,-1.28137 26.4198,-1.22279 3.3066,7.06582 8.5076,23.18909 11.2729,31.0457 l 20.64,58.53287 c 7.4359,-13.50928 28.386,-84.4531 34.0954,-89.69573 z"
     id="path34"
     style="stroke-width:0.757367"
     clip-path="url(#clipPath46)"
     transform="matrix(1.111194,0,0,1.111194,-307.07083,-706.71444)" />
  <path
     fill="#189e7c"
     d="m 1930.3572,885.67154 c 12.6518,-0.84936 24.2929,0.52719 34.9078,7.64427 10.3408,6.94868 17.2581,17.4925 19.193,29.25912 0.8931,5.19869 2.0917,13.03333 -1.2847,17.35337 -4.0345,2.18199 -60.9555,1.62551 -70.7322,1.68409 0.8304,1.955 1.7783,4.18092 2.9299,5.96751 3.9405,6.00412 10.3407,10.22897 17.7124,11.70804 12.4872,2.51148 19.8354,-1.58158 29.2831,-7.5198 2.8124,0.10983 2.5303,0.58577 5.3114,2.46755 4.7786,3.91732 7.4187,6.74365 10.9987,11.5323 -7.1836,8.2154 -14.9862,11.47374 -26.1886,13.8461 -50.0742,10.6024 -82.6319,-35.21198 -56.5607,-74.97831 7.2699,-11.07101 20.5091,-16.69439 34.4299,-18.96424 z"
     id="path35"
     style="stroke-width:0.757367"
     clip-path="url(#clipPath45)"
     transform="translate(-185.41686,-599.86487)" />
  <path
     fill="#e9e9e8"
     d="m 1931.0936,906.8617 c 15.1743,-0.87865 22.6321,3.03867 28.5937,16.07201 l -17.6732,-0.0659 -28.8522,0.10251 c 3.9796,-9.40158 7.638,-13.05531 17.9317,-16.10862 z"
     id="path36"
     style="fill:#ffffff;fill-opacity:1;stroke-width:0.757367"
     clip-path="url(#clipPath44)"
     transform="translate(-185.41686,-599.86487)" />
  <path
     fill="#0b2841"
     d="m 1471.1537,848.26293 c 8.1997,-0.26359 16.4089,-0.3002 24.6109,-0.10983 0.5327,14.50508 0.1332,31.75595 0.1489,46.50266 18.2843,-12.65991 48.1314,-15.11282 59.6942,7.60766 6.7528,13.27497 3.4547,34.60425 4.2851,49.11665 0.3212,5.49157 0.8774,21.24873 -0.8147,25.83969 -3.9796,2.79705 -19.3262,1.49372 -24.6297,1.11297 -0.9558,-11.4591 -0.4387,-27.39931 -0.3761,-39.2245 0.141,-15.92557 2.3424,-37.95777 -25.9771,-30.69425 -23.7289,6.08467 -5.7971,53.68564 -13.6075,69.00348 -4.1519,2.04287 -18.3775,1.12028 -23.7421,1.00313 -1.6647,-14.94441 -0.4113,-50.77877 -0.4113,-66.93865 l -0.1238,-38.42638 c -0.023,-6.53863 -0.4943,-18.82512 0.9432,-24.79263 z"
     id="path37"
     style="stroke-width:0.757367"
     clip-path="url(#clipPath43)"
     transform="translate(-185.41686,-599.86487)" />
  <path
     fill="#0b2841"
     d="m 1284.7856,887.4801 c 0.9745,19.40357 -0.832,38.86571 0.5311,58.43036 0.1692,15.00298 22.7857,17.93914 31.8087,9.00618 11.9655,-11.83983 4.2953,-43.57382 5.7987,-59.18453 0.3823,-3.96858 -0.2233,-5.16941 2.7661,-7.86394 6.0916,-1.44245 16.987,-0.68828 23.6701,-0.46861 l 0.031,32.57602 c -0.1598,19.47679 0.3823,38.99018 -0.063,58.43769 -5.1524,0.20502 -21.1131,1.41316 -24.6924,-0.81275 -0.9581,-2.47488 -1.1446,-3.7416 -1.6318,-6.28237 -2.2883,-0.5638 -10.1504,6.39952 -13.3505,7.26353 -38.3688,10.21433 -53.482,-14.1756 -50.5012,-46.55392 1.0968,-11.91306 -1.9334,-31.04571 0.7168,-43.33951 0.2139,-0.98849 2.0079,-1.09832 3.1328,-1.40585 7.6059,-0.10251 14.1519,-0.13912 21.7837,0.1977 z"
     id="path38"
     style="stroke-width:0.757367"
     clip-path="url(#clipPath13)"
     transform="translate(-185.41686,-599.86487)" />
  <path
     fill="#189e7c"
     d="m 1834.8778,885.73012 c 14.0854,-1.06171 30.8891,2.13805 41.4883,11.27603 -3.6036,6.29701 -6.7371,11.82519 -10.8891,17.85128 -6.3689,-3.29494 -13.1453,-7.0585 -20.3916,-8.21539 -6.3219,-1.01045 -17.4069,-1.19351 -18.2608,6.75829 5.6091,11.04905 50.3249,8.7792 51.0769,34.61157 0.6659,22.9255 -14.3046,31.01643 -36.0828,32.67122 -16.8899,0.14644 -29.1969,-2.76043 -42.1933,-12.86494 3.5174,-6.15056 7.1131,-12.25719 10.8029,-18.31257 9.3772,5.44032 18.817,11.67143 30.4268,11.06369 5.5229,-0.29288 13.0121,-2.91419 12.0877,-9.17459 -8.0454,-11.22478 -48.6719,-7.79071 -50.1525,-33.41806 -1.2456,-21.59288 11.3904,-29.55932 32.0875,-32.24653 z"
     id="path39"
     style="stroke-width:0.757367"
     clip-path="url(#clipPath3)"
     transform="translate(-185.41686,-599.86487)" />
  <path
     fill="#0b2841"
     d="m 1414.1747,885.07845 c 17.4242,-0.37343 34.0492,5.42568 43.4875,19.82825 -5.6882,4.62024 -11.4986,9.10137 -17.4281,13.4507 -34.6696,-31.22876 -64.5927,10.51453 -42.8043,33.09589 4.6486,4.81062 11.1876,7.64427 18.1174,7.86393 10.6792,0.34414 17.8856,-4.61292 25.2635,-10.81474 2.3604,1.09832 3.8457,2.2186 5.9953,3.63176 4.5483,3.48532 6.5421,5.15476 10.5131,9.18192 -16.8311,22.44956 -52.0288,26.65977 -74.3937,9.24781 -10.5068,-8.30326 -16.9964,-20.209 -18.0054,-33.02999 -2.4513,-29.45681 18.2427,-50.193 49.2547,-52.45553 z"
     id="path40"
     style="stroke-width:0.757367"
     clip-path="url(#clipPath2)"
     transform="translate(-185.41686,-599.86487)" />
  <path
     fill="#189e7c"
     d="m 1759.4062,887.77298 c 6.9643,-0.54183 18.1824,-0.35146 25.0371,0.0439 1.1281,13.15781 0.2272,33.63772 0.47,47.27148 0.1645,9.48211 0.5171,34.73604 -0.9792,42.89287 -5.7736,0.98848 -18.4958,0.51254 -24.6924,0.27091 -0.8069,-13.94861 -0.141,-32.52477 -0.2742,-46.80287 -0.1175,-12.33774 -0.6345,-31.99758 0.4387,-43.67633 z"
     id="path41"
     style="stroke-width:0.757367"
     clip-path="url(#clipPath1)"
     transform="translate(-185.41686,-599.86487)" />
  <path
     fill="#189e7c"
     d="m 728.17992,590.23808 c 30.56782,-2.70625 61.91903,-1.53032 92.61219,-1.6709 18.14328,-0.0835 39.33394,-1.68042 57.12469,-0.18012 4.59065,0.38733 9.22831,0.80909 12.8554,3.68594 8.76612,6.94428 81.23739,101.25147 88.28005,114.97894 11.98585,15.39545 2.93771,33.58354 -7.12883,47.7584 -8.72695,17.20693 -17.71242,32.65803 -26.9329,49.54499 l -55.9026,101.7479 c -24.03436,43.56284 -50.49722,94.69967 -76.36471,136.85227 l -63.3683,114.913 c -10.95177,19.8283 -25.36612,48.3698 -37.60265,66.8142 -3.40774,-3.8807 -12.43237,-21.1243 -15.47192,-26.5792 L 662.99417,1138.465 572.42662,976.55135 c -9.71402,-17.5994 -19.89807,-34.96376 -29.09505,-52.80991 -1.66861,-3.22685 -3.54091,-6.36071 -4.70033,-9.78526 1.66079,-2.27937 3.17273,-5.11888 4.58282,-7.5791 6.47863,-11.11715 12.44021,-22.54035 18.83266,-33.71827 45.03701,-78.83339 87.73952,-159.0492 132.84702,-237.8306 4.1598,-8.79531 9.09514,-17.49689 13.6153,-26.13917 5.42104,-10.35784 8.25691,-14.25686 19.67088,-18.45096 z"
     id="path21"
     style="stroke-width:0.757367"
     clip-path="url(#clipPath59)"
     transform="matrix(0.92650568,0,0,0.92650568,-84.22889,-544.55104)" />
  <path
     fill="#0b2841"
     d="m 543.21406,906.37708 0.38387,0.6524 c 3.17272,5.50988 4.81,13.00698 9.64351,16.26604 9.23615,1.47467 21.35517,-10.88357 26.62737,-3.56586 4.1598,5.76762 2.46768,18.00285 7.9749,22.10469 9.34582,1.71557 23.51732,-11.71829 29.06371,-4.50895 3.56442,4.63123 2.56951,19.88902 9.00113,21.5321 6.65881,1.70239 22.45975,-12.02362 28.46834,-5.0215 4.50449,5.24702 1.08108,20.58536 9.70619,21.35271 6.38461,0.5682 21.55101,-10.14989 26.5177,-5.87525 5.2252,4.4965 2.50684,21.68511 10.56007,21.95749 8.67211,0.29435 19.69439,-10.4911 27.36376,-5.27118 5.49156,7.7585 1.26126,20.98953 9.54951,22.05123 6.56479,0.8347 21.8722,-11.03586 27.28542,-5.1233 4.07362,4.435 2.10731,20.324 8.44493,21.7884 7.23067,1.6768 21.88787,-11.0783 27.59877,-3.9027 5.53073,6.9707 1.91931,17.4413 11.31997,22.1421 l -63.3683,114.913 c -10.95177,19.8283 -25.36612,48.3698 -37.60265,66.8142 -3.40774,-3.8807 -12.43237,-21.1243 -15.47192,-26.5792 L 662.99417,1138.465 572.42662,976.55135 c -9.71402,-17.5994 -19.89807,-34.96376 -29.09505,-52.80991 -1.66861,-3.22685 -3.54091,-6.36071 -4.70033,-9.78526 1.66079,-2.27937 3.17273,-5.11888 4.58282,-7.5791 z"
     id="path22"
     style="stroke-width:0.757367"
     clip-path="url(#clipPath58)"
     transform="matrix(0.92650568,0,0,0.92650568,-84.22889,-544.55104)" />
  <path
     fill="#0b2841"
     d="m 728.17992,590.23808 c 30.56782,-2.70625 61.91903,-1.53032 92.61219,-1.6709 18.14328,-0.0835 39.33394,-1.68042 57.12469,-0.18012 4.59065,0.38733 9.22831,0.80909 12.8554,3.68594 8.76612,6.94428 81.23739,101.25147 88.28005,114.97894 11.98585,15.39545 2.93771,33.58354 -7.12883,47.7584 -4.1598,1.35605 -15.33875,6.37315 -18.3548,5.47473 -5.44455,-1.61672 -6.43161,-18.43705 -9.27532,-21.99193 -4.80217,-6.00046 -17.60273,6.14544 -27.85729,4.33396 -6.22794,-3.87852 -4.35564,-15.91825 -8.02973,-21.53064 -4.43398,-6.77514 -22.03672,6.94721 -28.13932,4.50748 -6.40811,-2.56346 -4.68466,-15.83623 -9.29882,-22.42393 -6.52562,-3.18218 -20.61095,6.96259 -27.43426,5.3693 -5.09986,-1.1935 -6.38462,-17.54009 -8.32742,-20.80795 -4.58283,-7.69333 -18.24512,6.46542 -28.68769,3.70206 -6.49429,-4.35006 -4.19113,-16.14963 -7.84172,-21.59873 -4.59849,-6.86154 -19.84323,7.07388 -27.62228,4.10257 -6.77631,-2.58909 -4.3713,-14.48092 -8.01406,-20.22877 -4.67683,-7.70065 -21.15932,7.33602 -27.29326,3.9598 -5.87541,-3.23125 -6.86248,-18.97742 -10.40339,-25.44284 -8.39793,2.03481 -17.21888,6.90255 -25.27995,6.88424 -2.16999,-0.005 -3.75243,-2.60008 -5.17037,-4.29148 4.1598,-8.79531 9.09514,-17.49689 13.6153,-26.13917 5.42104,-10.35784 8.25691,-14.25686 19.67088,-18.45096 z"
     id="path23"
     style="stroke-width:0.757367"
     clip-path="url(#clipPath57)"
     transform="matrix(0.92650568,0,0,0.92650568,-84.22889,-544.55104)" />
  <path
     fill="#189e7c"
     d="m 728.17992,590.23808 c 30.56782,-2.70625 61.91903,-1.53032 92.61219,-1.6709 18.14328,-0.0835 39.33394,-1.68042 57.12469,-0.18012 4.59065,0.38733 9.22831,0.80909 12.8554,3.68594 8.76612,6.94428 81.23739,101.25147 88.28005,114.97894 -20.84597,-10.26778 -44.44163,-20.56412 -65.75763,-30.44749 L 805.39853,626.24451 c -14.98623,-6.78978 -29.88628,-13.74871 -44.70015,-20.87531 -7.37169,-3.57391 -25.73431,-12.98135 -32.51846,-15.13112 z"
     id="path24"
     style="stroke-width:0.757367"
     clip-path="url(#clipPath56)"
     transform="matrix(0.92650568,0,0,0.92650568,-84.22889,-544.55104)" />
  <path
     fill="#e9e9e8"
     d="m 714.82315,726.64881 c 70.72431,2.20102 45.68721,97.26604 -9.39283,100.19196 -52.76122,-1.18618 -52.87089,-54.44202 -25.5933,-83.34381 10.44257,-11.06589 19.16951,-15.62316 34.98613,-16.84815 z"
     id="path25"
     style="stroke-width:0.757367"
     clip-path="url(#clipPath55)"
     transform="matrix(0.92650568,0,0,0.92650568,-84.22889,-544.55104)" />
  <path
     fill="#189e7c"
     d="m 712.99785,747.72254 c 38.07268,-4.03813 17.8926,47.46698 -5.84408,58.17116 -35.31515,6.7561 -20.80679,-46.55464 5.84408,-58.17116 z"
     id="path26"
     style="stroke-width:0.757367"
     clip-path="url(#clipPath54)"
     transform="matrix(0.92650568,0,0,0.92650568,-84.22889,-544.55104)" />
  <path
     fill="#e9e9e8"
     d="m 795.08913,845.17604 c 72.75329,-4.61293 56.47448,86.19503 2.57735,99.59154 -10.59141,1.27405 -21.33167,-0.88158 -30.42681,-6.10809 -32.06409,-18.7746 -19.74922,-59.94677 2.11515,-80.79499 7.84172,-7.47806 14.94705,-10.47865 25.73431,-12.68846 z"
     id="path27"
     style="stroke-width:0.757367"
     clip-path="url(#clipPath53)"
     transform="matrix(0.92650568,0,0,0.92650568,-84.22889,-544.55104)" />
  <path
     fill="#189e7c"
     d="m 798.95124,865.60762 c 38.4017,-4.90287 17.80642,47.53874 -6.22011,58.60683 -35.29165,7.33162 -20.75979,-47.09648 6.22011,-58.60683 z"
     id="path28"
     style="stroke-width:0.757367"
     clip-path="url(#clipPath52)"
     transform="matrix(0.92650568,0,0,0.92650568,-84.22889,-544.55104)" />
  <path
     fill="#e9e9e8"
     d="m 808.00721,764.91923 c 4.763,2.32623 18.59764,8.58589 20.29759,13.06848 -7.12883,7.80609 -15.7226,15.63415 -23.41548,23.11075 -11.80566,11.50302 -23.54866,23.06901 -35.21331,34.6987 l -44.55914,43.47716 c -8.86012,8.65839 -19.74139,19.98714 -29.06371,27.82691 -4.51232,0.31632 -17.23455,-9.38766 -20.95564,-12.4029 3.69759,-4.75717 13.12959,-13.1483 17.87692,-17.73559 11.46881,-11.27457 23.02379,-22.47226 34.66494,-33.59307 26.9799,-25.82577 53.4741,-52.87215 80.36783,-78.45044 z"
     id="path29"
     style="stroke-width:0.757367"
     clip-path="url(#clipPath51)"
     transform="matrix(0.92650568,0,0,0.92650568,-84.22889,-544.55104)" />
</svg>
